<svg width="512" height="512" viewBox="0 0 512 512" fill="none" xmlns="http://www.w3.org/2000/svg">
  <defs>
    <linearGradient id="grad1" x1="0%" y1="0%" x2="100%" y2="100%">
      <stop offset="0%" style="stop-color:#a855f7;stop-opacity:1" />
      <stop offset="100%" style="stop-color:#2563eb;stop-opacity:1" />
    </linearGradient>
  </defs>
  <path d="M256 32C174 32 104.5 75.5 64 144C64 288 128 416 256 480C384 416 448 288 448 144C407.5 75.5 338 32 256 32Z" fill="url(#grad1)"/>
  <path d="M256 160C238.3 160 224 174.3 224 192V224H216C207.2 224 200 231.2 200 240V336C200 344.8 207.2 352 216 352H296C304.8 352 312 344.8 312 336V240C312 231.2 304.8 224 296 224H288V192C288 174.3 273.7 160 256 160ZM256 184C260.4 184 264 187.6 264 192V224H248V192C248 187.6 251.6 184 256 184ZM256 272C264.8 272 272 279.2 272 288C272 296.8 264.8 304 256 304C247.2 304 240 296.8 240 288C240 279.2 247.2 272 256 272Z" fill="white"/>
</svg>
